<svg viewBox="0 0 200 200" xmlns="http://www.w3.org/2000/svg">
  <defs>
    <linearGradient id="orangeGradient" x1="0%" y1="0%" x2="100%" y2="100%">
      <stop offset="0%" style="stop-color:#ff6b35;stop-opacity:1" />
      <stop offset="100%" style="stop-color:#ff3d00;stop-opacity:1" />
    </linearGradient>
  </defs>
  
  <!-- Stylized M with curved flowing design -->
  <path d="M 60 140 
           L 60 70
           Q 60 55, 70 50
           Q 80 45, 100 70
           L 100 100
           L 100 70
           Q 100 45, 120 50
           Q 130 55, 140 70
           L 140 140
           Q 140 150, 130 150
           Q 125 150, 125 142
           L 125 95
           L 110 75
           Q 105 70, 100 75
           L 100 140
           Q 100 150, 90 150
           Q 85 150, 85 142
           L 85 95
           L 75 80
           Q 72 75, 70 80
           L 70 142
           Q 70 150, 60 148
           Z"
        fill="url(#orangeGradient)"
        stroke="url(#orangeGradient)"
        stroke-width="8"
        stroke-linejoin="round"
        stroke-linecap="round"/>
</svg>